<?xml version="1.0" encoding="utf-8"?>
<!-- Generator: Adobe Illustrator 21.1.0, SVG Export Plug-In . SVG Version: 6.00 Build 0)  -->
<svg version="1.1" id="Layer_1" xmlns="http://www.w3.org/2000/svg" xmlns:xlink="http://www.w3.org/1999/xlink" x="0px" y="0px"
	 viewBox="0 0 41 41" style="enable-background:new 0 0 41 41;" xml:space="preserve">
<style type="text/css">
	.st0{fill:#70A8F9;}
	.st1{fill:#EEF8FF;}
</style>
<g>
	<path class="st0" d="M8.8,33.7c-0.2,0-0.4-0.1-0.6-0.2L5,30.3c-0.3-0.3-0.3-0.8,0-1.1s0.8-0.3,1.1,0l3.2,3.2c0.3,0.3,0.3,0.8,0,1.1
		C9.1,33.6,8.9,33.7,8.8,33.7z"/>
	<path class="st0" d="M11.9,32.1c-0.2,0-0.4-0.1-0.6-0.2l-4.8-4.8c-0.3-0.3-0.3-0.8,0-1.1s0.8-0.3,1.1,0l4.8,4.8
		c0.3,0.3,0.3,0.8,0,1.1C12.3,32,12.1,32.1,11.9,32.1z"/>
</g>
<g>
	<path class="st0" d="M28.1,24.1c-0.2,0-0.4-0.1-0.6-0.2c-1.6-1.7-2.1-4.2-1.2-6.3c0.6-1.8,2.3-3,4.1-3.1c3.9,0,6.4,4.3,6.4,7.2
		c0,0.4-0.4,0.8-0.8,0.8s-0.8-0.4-0.8-0.8c0-2.2-2.1-5.6-4.8-5.6c-1.2,0.1-2.3,0.9-2.7,2.1c-0.7,1.5-0.3,3.3,0.8,4.6
		c0.3,0.3,0.3,0.8,0,1.1C28.4,24,28.3,24.1,28.1,24.1z"/>
	<path class="st0" d="M26.4,22.5c-3.5,0-10.4-8-10.4-10.4c0.3-2.7,1.6-5.2,3.6-7.1c0.4-0.2,0.9-0.1,1.1,0.2c0.2,0.4,0.1,0.9-0.2,1.1
		C19,7.9,18,9.9,17.7,12c0,1.4,6.1,8.8,8.8,8.8c0.4,0,0.8,0.4,0.8,0.8C27.3,22.1,26.8,22.5,26.4,22.5z"/>
</g>
<g>
	<path class="st0" d="M30.4,26.5c-0.2,0-0.4-0.1-0.6-0.2c-1.6-1.7-2.1-4.2-1.2-6.3c0.6-1.8,2.3-3,4.1-3.1c3.9,0,6.4,4.3,6.4,7.2
		c0,0.4-0.4,0.8-0.8,0.8c-0.4,0-0.8-0.4-0.8-0.8c0-2.2-2.1-5.6-4.8-5.6c-1.2,0.1-2.3,0.9-2.7,2.1c-0.7,1.5-0.3,3.3,0.8,4.6
		c0.3,0.3,0.3,0.8,0,1.1C30.8,26.4,30.6,26.5,30.4,26.5z"/>
</g>
<g>
	<path class="st1" d="M22.1,33.5l-6.1,6.1C15.1,40.5,14,41,12.8,41s-2.4-0.5-3.3-1.4l-5.7-5.7c-1.8-1.8-1.8-4.8,0-6.6l0,0l6.1-6.1"
		/>
	<path class="st1" d="M23.3,33.7c-4.8,0-14.4-10.4-14.4-14.4c0-2.9,6.8-16.9,16.9-16.9C36,2.4,41,14.7,41,17.6
		c0,1.7-0.7,3.4-1.9,4.6l0,0c0.2,0.6,0.3,1.2,0.3,1.8C39.3,31,27.9,33.7,23.3,33.7z"/>
</g>
<g>
	<g>
		<path class="st0" d="M10.3,38.5c-1.2,0-2.4-0.5-3.3-1.4l-5.7-5.7c-1.8-1.8-1.8-4.8,0-6.6l0,0l6.1-6.1c0.3-0.3,0.8-0.3,1.1,0
			s0.3,0.8,0,1.1l-6.1,6.1c-1.2,1.2-1.2,3.2,0,4.4l0,0L8.1,36c1.2,1.2,3.1,1.2,4.4,0l6.1-6.1c0.3-0.3,0.8-0.3,1.1,0s0.3,0.8,0,1.1
			l-6.1,6.1C12.8,38,11.6,38.5,10.3,38.5z"/>
		<path class="st0" d="M8.8,33.7c-0.2,0-0.4-0.1-0.6-0.2L5,30.3c-0.3-0.3-0.3-0.8,0-1.1s0.8-0.3,1.1,0l3.2,3.2
			c0.3,0.3,0.3,0.8,0,1.1C9.1,33.6,8.9,33.7,8.8,33.7z"/>
		<path class="st0" d="M11.9,32.1c-0.2,0-0.4-0.1-0.6-0.2l-4.8-4.8c-0.3-0.3-0.3-0.8,0-1.1s0.8-0.3,1.1,0l4.8,4.8
			c0.3,0.3,0.3,0.8,0,1.1C12.3,32,12.1,32.1,11.9,32.1z"/>
		<path class="st0" d="M20.8,31.3c-4.8,0-14.4-10.4-14.4-14.4C6.4,14,13.2,0,23.3,0c10.2,0,15.2,12.3,15.2,15.2
			c0,1.7-0.7,3.4-1.9,4.6l0,0c0.2,0.6,0.3,1.2,0.3,1.8C36.8,28.5,25.6,31.3,20.8,31.3z M23.3,1.6C14.2,1.6,8.1,15,8.1,16.8
			c0,2.9,8.6,12.8,12.8,12.8c4,0,14.4-2.5,14.4-8c0-2.2-2.1-5.6-4.8-5.6c-1.2,0.1-2.3,0.9-2.7,2.1c-0.7,1.5-0.3,3.3,0.8,4.6
			c0.3,0.3,0.3,0.8,0,1.1s-0.8,0.3-1.1,0c-1.6-1.7-2.1-4.2-1.2-6.3c0.6-1.8,2.3-3,4.1-3.1c2.4,0.2,4.5,1.6,5.5,3.8
			c0.6-0.9,1-1.9,1-3C36.8,13,32.1,1.6,23.3,1.6z"/>
		<path class="st0" d="M26.4,22.5c-3.5,0-10.4-8-10.4-10.4c0.3-2.7,1.6-5.2,3.6-7.1c0.4-0.2,0.9-0.1,1.1,0.2
			c0.2,0.4,0.1,0.9-0.2,1.1C19,7.9,18,9.9,17.7,12c0,1.4,6.1,8.8,8.8,8.8c0.4,0,0.8,0.4,0.8,0.8C27.3,22.1,26.8,22.5,26.4,22.5z"/>
	</g>
	<path class="st0" d="M17.6,9.6c-0.3,0-0.6-0.2-0.7-0.5c0,0-0.6-1.3-0.7-1.5c0,0-0.2-0.4-0.1-0.8c0.2-0.5,0.9-0.4,0.9-0.4
		c0.5,0.1,0.5,0.1,1.4,2.1c0.2,0.4,0,0.9-0.4,1.1C17.8,9.6,17.8,9.6,17.6,9.6z"/>
</g>
</svg>
