<?xml version="1.0" encoding="utf-8"?>
<!-- Generator: Adobe Illustrator 21.1.0, SVG Export Plug-In . SVG Version: 6.00 Build 0)  -->
<svg version="1.1" id="Layer_1" xmlns="http://www.w3.org/2000/svg" xmlns:xlink="http://www.w3.org/1999/xlink" x="0px" y="0px"
	 viewBox="0 0 71.8 68.8" style="enable-background:new 0 0 71.8 68.8;" xml:space="preserve">
<style type="text/css">
	.st0{fill:#324A76;}
	.st1{fill:#FF6E35;}
</style>
<path class="st0" d="M70.7,2.1c-0.7-0.3-1.3,0-1.6,0.5L63,14.9h-6.7l4.2-3.1c0.5-0.3,0.7-1.2,0.3-1.6c-0.3-0.5-1.2-0.7-1.6-0.3
	l-10.3,7.6c-0.5,0.3-0.7,1.2-0.3,1.6c0.1,0.3,0.7,0.5,0.9,0.5c0.1,0,0.5,0,0.7-0.1l3.1-2.2h0.1h5L46.1,52.4
	c-6.5-4.6-12.3-8.6-19.2-12.7l0,0c-2.2-1.2-4.8-1.8-7.1-1.8c-2,0-3.7,0.3-5.4,0.9L7.5,17.1h8.6c0.7,0,1.2-0.5,1.2-1.2
	c0-0.7-0.5-1.2-1.2-1.2H3.2c-0.7,0-1.2,0.5-1.2,1.2c0,0.7,0.5,1.2,1.2,1.2h2.1L12.6,40c-1.2,0.7-2.2,1.6-3.3,2.6
	C6.4,45.5,5,49.4,5,53.4s1.4,7.7,4.2,10.7c2.7,2.9,6.5,4.6,10.5,4.7l0,0h26.5c4.2,0,7.6-3.5,7.6-7.7c0-3.4-3.3-5.9-4.2-6.5
	c-0.3-0.1-0.7-0.5-0.9-0.7l12.8-36.6h2.9c0.5,0,0.8-0.3,0.9-0.7l6.5-12.9C71.5,3,71.4,2.4,70.7,2.1z"/>
<g>
	<path class="st1" d="M30.7,56.7L30.7,56.7H26L25.3,56c0.8-1.3,1.3-2.9,1.3-4.6c0-2.5-0.9-4.7-2.6-6.3c-1.6-1.6-3.9-2.6-6.1-2.6
		c-5,0-9,4-9,9c0,4.8,4,8.8,9,8.8c2.2,0,4.6-0.9,6-2.5l0.8,0.8c0.1,0.1,0.5,0.3,0.8,0.3h5.2c0.7,0,1.2-0.5,1.2-1.2
		C32,57.3,31.4,56.7,30.7,56.7z M23.8,54.5L21.3,52c-0.5-0.5-1.2-0.5-1.6,0c-0.5,0.5-0.5,1.2,0,1.6l2.7,2.7
		c-1.2,0.9-2.7,1.6-4.3,1.6c-3.7,0-6.7-2.9-6.7-6.5c0-3.7,3.1-6.7,6.7-6.7s6.5,3.1,6.5,6.7C24.5,52.5,24.3,53.7,23.8,54.5z"/>
	<path class="st1" d="M68.7,0.1c-0.7-0.3-1.3,0-1.6,0.5L61,12.9h-6.7l4.2-3.1c0.5-0.3,0.7-1.2,0.3-1.6c-0.3-0.5-1.2-0.7-1.6-0.3
		l-10.3,7.6c-0.5,0.3-0.7,1.2-0.3,1.6c0.1,0.3,0.7,0.5,0.9,0.5c0.1,0,0.5,0,0.7-0.1l3.1-2.2h0.1h5L44.1,50.4
		c-6.5-4.6-12.3-8.6-19.2-12.7l0,0c-2.2-1.2-4.8-1.8-7.1-1.8c-2,0-3.7,0.3-5.4,0.9L5.5,15.1h8.6c0.7,0,1.2-0.5,1.2-1.2
		s-0.5-1.2-1.2-1.2H1.2c-0.7,0-1.2,0.5-1.2,1.2s0.5,1.2,1.2,1.2h2.1L10.6,38c-1.2,0.7-2.2,1.6-3.3,2.6C4.4,43.5,3,47.4,3,51.4
		s1.4,7.7,4.2,10.7c2.7,2.9,6.5,4.6,10.5,4.7l0,0h26.5c4.2,0,7.6-3.5,7.6-7.7c0-3.4-3.3-5.9-4.2-6.5c-0.3-0.1-0.7-0.5-0.9-0.7
		l12.8-36.6h2.9c0.5,0,0.8-0.3,0.9-0.7l6.5-12.9C69.5,1,69.4,0.4,68.7,0.1z M49,59.2c0,3.1-2.2,5.5-5.2,5.5H17.3
		c-6.9-0.1-12.4-6-12.4-13.1c0-7.3,5.9-13.1,12.9-13.1c2,0,4,0.5,6.1,1.4c7.7,4.6,14.4,9.3,21.9,14.5l0,0C47.4,55.7,49,57.3,49,59.2
		z"/>
</g>
</svg>
