<?xml version="1.0" encoding="utf-8"?>
<!-- Generator: Adobe Illustrator 21.1.0, SVG Export Plug-In . SVG Version: 6.00 Build 0)  -->
<svg version="1.1" id="Layer_1" xmlns="http://www.w3.org/2000/svg" xmlns:xlink="http://www.w3.org/1999/xlink" x="0px" y="0px"
	 viewBox="0 0 54.9 25.8" style="enable-background:new 0 0 54.9 25.8;" xml:space="preserve">
<style type="text/css">
	.st0{fill:#EEF8FF;}
	.st1{fill:#70A8F9;}
</style>
<g>
	<g>
		<path class="st0" d="M52.4,4.8h-2.5c-0.3,0-0.6,0.1-0.8,0.2V4.8c0-1.4-1.1-2.5-2.5-2.5h-2.5c-1.4,0-2.5,1.1-2.5,2.5v5.1H14.5V4.8
			c0-1.4-1.1-2.5-2.5-2.5H9.5C8.1,2.3,7,3.4,7,4.8V5C6.7,4.9,6.4,4.8,6.2,4.8H3.7c-1.4,0-2.5,1.1-2.5,2.5V20c0,1.4,1.1,2.5,2.5,2.5
			h2.5c0.3,0,0.6-0.1,0.8-0.2v1c0,1.4,1.1,2.5,2.5,2.5H12c1.4,0,2.5-1.1,2.5-2.5v-5.1h27.1v5.1c0,1.4,1.1,2.5,2.5,2.5h2.5
			c1.4,0,2.5-1.1,2.5-2.5v-1c0.3,0.1,0.6,0.2,0.8,0.2h2.5c1.4,0,2.5-1.1,2.5-2.5V7.3C54.9,6,53.8,4.8,52.4,4.8z"/>
	</g>
</g>
<g>
	<g>
		<g>
			<path class="st1" d="M51.2,2.5h-2.5c-0.3,0-0.6,0.1-0.8,0.2V2.5c0-1.4-1.1-2.5-2.5-2.5h-2.5c-1.4,0-2.5,1.1-2.5,2.5v5.1H13.3V2.5
				c0-1.4-1.1-2.5-2.5-2.5H8.3C6.9,0,5.8,1.1,5.8,2.5v0.2C5.5,2.6,5.2,2.5,5,2.5H2.5C1.1,2.5,0,3.6,0,5v12.7c0,1.4,1.1,2.5,2.5,2.5
				H5c0.3,0,0.6-0.1,0.8-0.2v1c0,1.4,1.1,2.5,2.5,2.5h2.5c1.4,0,2.5-1.1,2.5-2.5v-5.1h27.1V21c0,1.4,1.1,2.5,2.5,2.5h2.5
				c1.4,0,2.5-1.1,2.5-2.5v-1c0.3,0.1,0.6,0.2,0.8,0.2h2.5c1.4,0,2.5-1.1,2.5-2.5V5C53.7,3.6,52.6,2.5,51.2,2.5z M5.4,17.7
				c0,0.5-0.4,0.8-0.8,0.8H2.1c-0.5,0-0.8-0.4-0.8-0.8V5c0-0.5,0.4-0.8,0.8-0.8h2.5c0.5,0,0.8,0.4,0.8,0.8V17.7z M11.3,21.1
				c0,0.5-0.4,0.8-0.8,0.8H8c-0.5,0-0.8-0.4-0.8-0.8V2.4c0-0.5,0.4-0.8,0.8-0.8h2.5c0.5,0,0.8,0.4,0.8,0.8V21.1z M40.1,14.3H13V9.2
				h27.1V14.3z M46.1,21.1c0,0.5-0.4,0.8-0.8,0.8h-2.5c-0.5,0-0.8-0.4-0.8-0.8V2.4c0-0.5,0.4-0.8,0.8-0.8h2.5c0.5,0,0.8,0.4,0.8,0.8
				V21.1z M52,17.7c0,0.5-0.4,0.8-0.8,0.8h-2.5c-0.5,0-0.8-0.4-0.8-0.8V5c0-0.5,0.4-0.8,0.8-0.8h2.5C51.7,4.2,52,4.6,52,5V17.7z"/>
		</g>
	</g>
	<g>
		<g>
			<path class="st1" d="M43.5,7.6c-0.5,0-0.8,0.4-0.8,0.8v0.8c0,0.5,0.4,0.8,0.8,0.8c0.5,0,0.8-0.4,0.8-0.8V8.4
				C44.4,7.9,44,7.6,43.5,7.6z"/>
		</g>
	</g>
	<g>
		<g>
			<path class="st1" d="M43.5,10.9c-0.5,0-0.8,0.4-0.8,0.8v0.8c0,0.5,0.4,0.8,0.8,0.8c0.5,0,0.8-0.4,0.8-0.8v-0.8
				C44.4,11.3,44,10.9,43.5,10.9z"/>
		</g>
	</g>
	<g>
		<g>
			<path class="st1" d="M43.5,14.3c-0.5,0-0.8,0.4-0.8,0.8v0.8c0,0.5,0.4,0.8,0.8,0.8c0.5,0,0.8-0.4,0.8-0.8v-0.8
				C44.4,14.7,44,14.3,43.5,14.3z"/>
		</g>
	</g>
</g>
</svg>
