<?xml version="1.0" encoding="utf-8"?>
<!-- Generator: Adobe Illustrator 21.1.0, SVG Export Plug-In . SVG Version: 6.00 Build 0)  -->
<svg version="1.1" id="Layer_1" xmlns="http://www.w3.org/2000/svg" xmlns:xlink="http://www.w3.org/1999/xlink" x="0px" y="0px"
	 viewBox="0 0 84.4 65.2" style="enable-background:new 0 0 84.4 65.2;" xml:space="preserve">
<style type="text/css">
	.st0{fill:#324A76;}
	.st1{fill:#FF6E35;}
</style>
<g>
	<g>
		<path class="st0" d="M83.2,65.2c0.7,0,1.2-0.5,1.2-1.2v-8.8c0-1.9-1.1-3.6-2.8-4.5l-4.8-2.4c0,0,0,0,0-0.1v-2.4
			c2-1.4,3.4-3.5,3.7-6c0.9-1.5,1.4-3.3,1.4-5c0-3.3-1.6-6.2-4-8.1c0.1-0.5,0.2-1,0.2-1.5c0-3.1-2.8-5.6-6.3-5.6s-6.3,2.5-6.3,5.6
			c0,0.5,0.1,1,0.2,1.5c-1.5,1.1-2.6,2.6-3.3,4.3c-0.3-2.9-0.6-6.3-0.9-10.3C61.1,15.4,59.2,11,56,7.8C52.8,4.7,48.6,3,43.7,3
			c-4.8,0-9.1,1.7-12.3,4.8c-3.2,3.1-5.1,7.6-5.5,12.9c-0.1,1.4-0.2,2.7-0.3,4H14.4c-4.2,0-7.6,3.4-7.6,7.6v0.1c0,1,0.2,1.9,0.7,2.8
			l0.6,1.2v1.9c0,3.1,1.5,5.8,3.8,7.5v1.7c0,0.2-0.1,0.4-0.4,0.5l-4.9,1.4C4.5,50,3,52,3,54.2V64c0,0.7,0.5,1.2,1.2,1.2"/>
	</g>
</g>
<g>
	<path class="st1" d="M6.3,52.2c-0.7,0-1.2,0.5-1.2,1.2V61c0,0.7,0.5,1.2,1.2,1.2s1.2-0.5,1.2-1.2v-7.6C7.5,52.7,7,52.2,6.3,52.2z"
		/>
	<g>
		<path class="st1" d="M28,54.7c-0.7,0-1.2,0.5-1.2,1.2V61c0,0.7,0.5,1.2,1.2,1.2s1.2-0.5,1.2-1.2v-5.1C29.2,55.3,28.6,54.7,28,54.7
			z"/>
		<path class="st1" d="M53.5,54.7c-0.7,0-1.2,0.5-1.2,1.2V61c0,0.7,0.5,1.2,1.2,1.2s1.2-0.5,1.2-1.2v-5.1
			C54.7,55.3,54.1,54.7,53.5,54.7z"/>
		<path class="st1" d="M18.3,29.4c-2.8-1.4-8-1.4-8.2-1.4c-0.7,0-1.2,0.5-1.2,1.2s0.5,1.2,1.2,1.2c1.3,0,5.2,0.2,7.1,1.1
			c0.2,0.1,0.4,0.1,0.5,0.1c0.4,0,0.9-0.2,1.1-0.7C19.2,30.4,18.9,29.7,18.3,29.4z"/>
		<path class="st1" d="M78.7,47.7l-4.8-2.4c0,0,0,0,0-0.1v-2.4c2-1.4,3.4-3.5,3.7-6c0.9-1.5,1.4-3.3,1.4-5c0-3.3-1.6-6.2-4-8.1
			c0.1-0.5,0.2-1,0.2-1.5c0-3.1-2.8-5.6-6.3-5.6s-6.3,2.5-6.3,5.6c0,0.5,0.1,1,0.2,1.5c-1.5,1.1-2.6,2.6-3.3,4.3
			c-0.3-2.9-0.6-6.3-0.9-10.3c-0.4-5.3-2.3-9.7-5.5-12.9C49.9,1.7,45.7,0,40.8,0C36,0,31.7,1.7,28.5,4.8c-3.2,3.1-5.1,7.6-5.5,12.9
			c-0.1,1.4-0.2,2.7-0.3,4H11.4c-4.2,0-7.6,3.4-7.6,7.6v0.1c0,1,0.2,1.9,0.7,2.8l0.6,1.2v1.9c0,3.1,1.5,5.8,3.8,7.5v1.7
			c0,0.2-0.1,0.4-0.4,0.5l-4.9,1.4C1.5,47,0,49,0,51.2V61c0,0.7,0.5,1.2,1.2,1.2s1.2-0.5,1.2-1.2v-9.8c0-1.2,0.8-2.2,1.9-2.5
			l4.9-1.4c0.2-0.1,0.3-0.1,0.5-0.2l3,3v11c0,0.7,0.5,1.2,1.2,1.2s1.2-0.5,1.2-1.2v-11l3-3c0.4,0.2,0.8,0.3,1.1,0.4l1.2,0.3
			c-1.6,1.2-2.6,3.1-2.6,5.1V61c0,0.7,0.5,1.2,1.2,1.2s1.2-0.5,1.2-1.2v-8.1c0-1.5,0.9-2.9,2.3-3.6l6.8-3c2.1,4.3,6.5,7,11.3,7
			s9.2-2.7,11.3-7l6.8,3c1.4,0.6,2.3,2,2.3,3.6V61c0,0.7,0.5,1.2,1.2,1.2s1.2-0.5,1.2-1.2v-8.1c0-1.5-0.6-3-1.5-4.1l1.8-0.9l1.4,1.3
			c1,0.9,2.2,1.4,3.5,1.4c1.2,0,2.5-0.5,3.5-1.4l1.4-1.3l4,2c0.9,0.4,1.5,1.3,1.5,2.3V61c0,0.7,0.5,1.2,1.2,1.2s1.2-0.5,1.2-1.2
			v-8.8C81.4,50.3,80.4,48.6,78.7,47.7z M68.8,18.9c2.2,0,3.9,1.5,3.9,3.3c0,0.1,0,0.2,0,0.2c-1.2-0.5-2.5-0.8-3.9-0.8
			s-2.7,0.3-3.9,0.8c0-0.1,0-0.1,0-0.2C64.9,20.4,66.6,18.9,68.8,18.9z M14,47.9l-2.7-2.7c0.1-0.2,0.1-0.5,0.1-0.7V44
			c0.7,0.2,1.5,0.4,2.4,0.4c0.1,0,0.2,0,0.3,0c0.9,0,1.8-0.1,2.6-0.4v0.5c0,0.3,0,0.5,0.1,0.7L14,47.9z M13.8,42
			c-3.4-0.1-6.3-3.1-6.3-6.8V33c0-0.2,0-0.4-0.1-0.5L6.7,31c-0.3-0.5-0.4-1.1-0.4-1.7v-0.1c0-2.9,2.3-5.2,5.2-5.2h10.3v4.9
			c0,0.8-0.2,1.6-0.5,2.3l-0.6,1.2c-0.1,0.2-0.1,0.3-0.1,0.5v2.5c0,1.8-0.7,3.4-2,4.6C17.2,41.4,15.5,42.1,13.8,42z M23.7,46.2
			l-3.8-1.1c-1-0.3-1-0.4-1-0.7v-1.6c0.4-0.3,0.8-0.6,1.1-0.9c0.2-0.2,0.5-0.5,0.7-0.7c0.2,0.4,0.5,0.7,0.9,1c1,0.6,2.8,1.6,5.4,2.6
			L23.7,46.2z M40.7,50.9c-3.9,0-7.4-2.2-9.1-5.6l1.7-0.8c1.4-0.6,2.2-1.9,2.2-3.4v-2.9c1.6,0.6,3.3,1,5.2,1c1.8,0,3.6-0.4,5.2-1
			v2.9c0,1.5,0.9,2.8,2.2,3.4l1.7,0.8C48.1,48.8,44.6,50.9,40.7,50.9z M51.1,43.3l-2-0.9c-0.5-0.2-0.8-0.7-0.8-1.2v-4.1
			c3.8-2.5,6.4-6.8,6.4-11.7v-2.2c0-1.5-0.6-2.8-1.7-3.8c-2.4-2.1-7.8-5.7-17.2-6.6c-0.7-0.1-1.2,0.4-1.3,1.1s0.4,1.2,1.1,1.3
			c8.7,0.9,13.7,4.2,15.9,6.1c0.6,0.5,0.9,1.2,0.9,2v2.2c0,6.4-5.2,11.5-11.5,11.5s-11.5-5.2-11.5-11.5v-1c0-0.5,0.3-0.9,0.7-1.1
			c1.5-0.9,3.5-2.4,4.4-5.1c0.2-0.6-0.1-1.3-0.8-1.5c-0.6-0.2-1.3,0.1-1.5,0.8c-0.7,2-2.2,3.2-3.3,3.8c-1.2,0.7-1.9,1.9-1.9,3.2v1
			c0,4.9,2.5,9.2,6.4,11.7v4.1c0,0.5-0.3,1-0.8,1.2l-2,0.9c-3.8-1-6.3-2.4-7.4-3.1c0,0,0,0,0-0.1c0.4-2.5,1.5-9.5,2.4-22.2
			c0.3-4.7,2-8.6,4.8-11.3c2.7-2.7,6.4-4.1,10.6-4.1s7.9,1.4,10.6,4.1c2.8,2.7,4.4,6.7,4.8,11.3c0.9,12.7,2,19.8,2.4,22.2v0.1
			C57.4,40.9,54.9,42.2,51.1,43.3z M63.8,45.3C63.8,45.3,63.7,45.3,63.8,45.3L60,47.2c0,0-0.1,0-0.1-0.1l-5.5-2.4
			c2.7-0.9,4.5-2,5.4-2.6c0.8-0.5,1.2-1.5,1.1-2.5c0-0.1,0-0.1,0-0.2c0.7,1.3,1.7,2.5,2.9,3.3V45.3z M70.6,47.5c-1,1-2.6,1-3.6,0
			l-1.1-1.1c0.2-0.3,0.3-0.7,0.3-1.2v-1.3c0.8,0.3,1.7,0.4,2.6,0.4s1.8-0.1,2.6-0.4v1.3c0,0.4,0.1,0.8,0.3,1.2L70.6,47.5z M68.8,42
			c-3.3,0-6.1-2.5-6.4-5.7c0-0.2-0.1-0.3-0.2-0.5c-0.7-1.2-1.1-2.6-1.1-4c0-4.3,3.5-7.7,7.7-7.7c4.3,0,7.7,3.5,7.7,7.7
			c0,0.8-0.1,1.6-0.4,2.4c-3.4-3.4-9.3-4.8-9.6-4.8c-0.4-0.1-0.7,0-1,0.2s-0.4,0.6-0.4,0.9c0,0-0.1,0.8-0.9,1.7
			c-0.5,0.5-0.5,1.2,0,1.7s1.2,0.5,1.7,0c0.7-0.7,1.1-1.3,1.3-1.9c2,0.6,6.2,2.1,8,4.7C74.6,39.7,71.9,42,68.8,42z"/>
		<path class="st1" d="M75.1,53.8c-0.7,0-1.2,0.5-1.2,1.2v6.1c0,0.7,0.5,1.2,1.2,1.2s1.2-0.5,1.2-1.2V55
			C76.3,54.3,75.8,53.8,75.1,53.8z"/>
	</g>
</g>
</svg>
