<?xml version="1.0" encoding="utf-8"?>
<!-- Generator: Adobe Illustrator 21.1.0, SVG Export Plug-In . SVG Version: 6.00 Build 0)  -->
<svg version="1.1" id="Layer_1" xmlns="http://www.w3.org/2000/svg" xmlns:xlink="http://www.w3.org/1999/xlink" x="0px" y="0px"
	 viewBox="0 0 59.4 65.9" style="enable-background:new 0 0 59.4 65.9;" xml:space="preserve">
<style type="text/css">
	.st0{fill:#324A76;}
	.st1{fill:#FF6E35;}
</style>
<path class="st0" d="M59.4,50.1c0-3.5-2.3-6.5-5.7-7.4l-10.5-2.8c-0.1-0.9-0.6-1.8-1.4-2.4l-1.7-1.1c-0.2-0.1-0.4-0.2-0.6-0.2v-0.9
	c3.4-2.6,5.5-6.7,5.5-11.3v-3.5c0.3,0.1,0.4,0.1,0.4,0.1c0.1,0,0.2,0,0.2,0c0.3,0,0.6-0.1,0.8-0.3c0.5-0.6,0.8-1.2,0.8-1.8
	c0-0.9-0.4-1.6-1.3-2.3l-0.7-7.6c-0.2-1.8-1.5-3.4-3.3-3.8L31.7,2.1c-0.7-0.2-1.4-0.2-2.1,0L19.5,4.7c-1.8,0.4-3.1,2-3.3,3.8
	l-0.7,7.6c-0.9,0.7-1.3,1.5-1.3,2.3c0,0.6,0.3,1.2,0.8,1.8c0.3,0.3,0.6,0.4,1,0.3c0,0,0.2,0,0.4-0.1v3.5c0,4.6,2.2,8.7,5.5,11.3v0.9
	c-0.2,0-0.4,0-0.6,0.2l-1.7,1.1c-0.8,0.6-1.3,1.4-1.4,2.4L7.7,42.6C4.3,43.5,2,46.6,2,50.1v4.7c0,1.1,0.4,2.1,1.1,2.9v3.9
	c0,2.4,2,4.4,4.4,4.4H13h35.4h5.5c2.4,0,4.4-2,4.4-4.4v-3.9c0.7-0.8,1.1-1.8,1.1-2.9V50.1z"/>
<path class="st1" d="M57.4,48.1c0-3.5-2.3-6.5-5.7-7.4l-10.5-2.8c-0.1-0.9-0.6-1.8-1.4-2.4l-1.7-1.1c-0.2-0.1-0.4-0.2-0.6-0.2v-0.9
	c3.4-2.6,5.5-6.7,5.5-11.3v-3.5c0.3,0.1,0.4,0.1,0.4,0.1c0.1,0,0.2,0,0.2,0c0.3,0,0.6-0.1,0.8-0.3c0.5-0.6,0.8-1.2,0.8-1.8
	c0-0.9-0.4-1.6-1.3-2.3l-0.7-7.6c-0.2-1.8-1.5-3.4-3.3-3.8L29.7,0.1c-0.7-0.2-1.4-0.2-2.1,0L17.5,2.7c-1.8,0.4-3.1,2-3.3,3.8
	l-0.7,7.6c-0.9,0.7-1.3,1.5-1.3,2.3c0,0.6,0.3,1.2,0.8,1.8c0.3,0.3,0.6,0.4,1,0.3c0,0,0.2,0,0.4-0.1v3.5c0,4.6,2.2,8.7,5.5,11.3v0.9
	c-0.2,0-0.4,0-0.6,0.2l-1.7,1.1c-0.8,0.6-1.3,1.4-1.4,2.4L5.7,40.6C2.3,41.5,0,44.6,0,48.1v4.7c0,1.1,0.4,2.1,1.1,2.9v3.9
	c0,2.4,2,4.4,4.4,4.4H11h35.4h5.5c2.4,0,4.4-2,4.4-4.4v-3.9c0.7-0.8,1.1-1.8,1.1-2.9V48.1z M55.3,48.1v4.7c0,1-0.6,1.9-1.6,2.2
	L47.4,57v-2.9c0-1.2,0.5-2.3,1.3-3.2l5.8-5.8C55,46,55.3,47,55.3,48.1z M37.7,36.6l1,0.7c0.5,0.3,0.7,1,0.4,1.5
	c-2,3.9-3.3,6.6-4,8.1c-1.8-1.6-3.4-2.5-4.5-3.1L37.7,36.6z M15.4,16.2l0.1-0.9c0.6-0.3,1.4-0.7,2.6-1c2.8-0.8,6.6-1.3,10.7-1.3
	s7.8,0.4,10.7,1.3c1.2,0.3,2,0.7,2.6,1l0.1,0.9c-2.3-0.3-6.6-0.8-13.3-0.8S17.7,15.8,15.4,16.2z M16.2,6.7c0.1-1,0.8-1.8,1.7-2
	l10.2-2.5c0.4-0.1,0.7-0.1,1.1,0l10.2,2.5c0.9,0.2,1.6,1,1.7,2l0.6,6.2c-0.5-0.2-1.1-0.4-1.8-0.6c-2.8-0.8-6.4-1.3-10.2-1.3V5.4
	c0-0.6-0.5-1-1-1s-1,0.5-1,1V11c-3.8,0.1-7.4,0.5-10.2,1.3c-0.7,0.2-1.2,0.4-1.8,0.6L16.2,6.7z M16.5,21.9v-3.8
	c2.4-0.3,6.4-0.7,12.2-0.7c5.8,0,9.9,0.4,12.2,0.7v3.8c0,6.7-5.5,12.2-12.2,12.2S16.5,28.7,16.5,21.9z M28.7,36.3
	c2.4,0,4.7-0.6,6.7-1.7v1.3l-6.7,6.7L22,35.9v-1.3C24,35.7,26.3,36.3,28.7,36.3z M18.7,37.2l1-0.7l7.2,7.2c-1.1,0.6-2.7,1.5-4.5,3.1
	c-0.7-1.4-2.1-4.1-4-8.1C18.1,38.2,18.2,37.5,18.7,37.2z M6.2,42.7l10.4-2.8l4.4,8.8c0.2,0.4,0.4,0.7,0.9,0.8c0.1,0,0.1,0,0.2,0
	c0.3,0,0.5-0.1,0.7-0.3c1.9-1.9,3.7-3,4.9-3.6v10.6c0,0.6,0.5,1,1,1s1-0.5,1-1V45.6c1.2,0.6,3,1.7,4.9,3.6c0.2,0.2,0.5,0.3,0.7,0.3
	c0.1,0,0.1,0,0.2,0c0.5-0.1,0.7-0.4,0.9-0.8l4.4-8.8l10.4,2.8c0.7,0.2,1.4,0.5,2,1l-5.8,5.8c-1.2,1.2-1.9,2.9-1.9,4.6v4.4
	c0,0,0,0,0,0v3.4H12v-3.4c0,0,0,0,0,0v-4.4c0-1.8-0.7-3.4-1.9-4.6l-5.8-5.8C4.8,43.2,5.5,42.8,6.2,42.7z M2.1,48.1
	c0-1,0.3-2,0.8-2.9l5.8,5.8c0.8,0.8,1.3,2,1.3,3.2V57l-6.3-2.1c-0.9-0.3-1.6-1.2-1.6-2.2L2.1,48.1L2.1,48.1z M3.2,59.6v-2.6l6.8,2.3
	v2.6H5.5C4.2,61.8,3.2,60.8,3.2,59.6z M51.9,61.8h-4.5v-2.6l6.8-2.3v2.6C54.2,60.8,53.2,61.8,51.9,61.8z"/>
</svg>
