<?xml version="1.0" encoding="utf-8"?>
<!-- Generator: Adobe Illustrator 21.1.0, SVG Export Plug-In . SVG Version: 6.00 Build 0)  -->
<svg version="1.1" id="Layer_1" xmlns="http://www.w3.org/2000/svg" xmlns:xlink="http://www.w3.org/1999/xlink" x="0px" y="0px"
	 viewBox="0 0 42.9 47.4" style="enable-background:new 0 0 42.9 47.4;" xml:space="preserve">
<style type="text/css">
	.st0{fill:#EEF8FF;}
	.st1{fill:#70A8F9;}
</style>
<path class="st0" d="M42.7,42.9c-2.6-6.7-6.8-12.9-12.1-17.8l0,0l0,0c-3.1-2.9-7-4.7-11.2-5.3c0.6-5,0.7-10.1,0.2-15.2
	c0-0.1,0-0.1,0-0.2c-0.2-1.5-1.6-2.6-3.1-2.5c-1.5,0.1-2.7,1.5-2.6,3c0,0.1,0,0.1,0,0.2l0,0l0,0l0,0c0.5,5.1,0.3,10.3-0.4,15.4
	l-0.3,2c-0.3-2.8-2.7-5-5.6-5c-1.5,0-2.9,0.6-4,1.7c-1.1,1.1-1.7,2.5-1.7,4c0,3.1,2.5,5.7,5.7,5.7c2.3,0,4.3-1.4,5.2-3.3l-0.4,2.6
	l0,0c-0.9,5.1-2.4,10-4.4,14.7l0,0c-0.3,0.7-0.3,1.5,0,2.2s0.8,1.3,1.6,1.6c0.3,0.1,0.7,0.2,1,0.2c0.5,0.3,1.1,0.5,1.7,0.5
	c0.6,0,1.2-0.2,1.7-0.5l0,0c5.9-3.7,11-8.7,14.8-14.5c3.4,3.8,6.1,8.1,8,12.9l0,0l0,0l0,0l0,0c0.3,0.8,0.9,1.4,1.7,1.8
	c0.4,0.2,0.9,0.3,1.3,0.3s0.8-0.1,1.2-0.2c0.8-0.3,1.4-0.9,1.8-1.7C43,44.6,43,43.7,42.7,42.9z"/>
<path class="st1" d="M40.8,41c-2.6-6.7-6.8-12.9-12.1-17.8l0,0l0,0c-3.1-2.9-7-4.7-11.2-5.3c0.6-5,0.7-10.1,0.2-15.2
	c0-0.1,0-0.1,0-0.2C17.5,1,16.1-0.1,14.6,0S11.9,1.5,12,3c0,0.1,0,0.1,0,0.2l0,0l0,0l0,0c0.5,5.1,0.3,10.3-0.4,15.4l-0.3,2
	c-0.3-2.8-2.7-5-5.6-5c-1.5,0-2.9,0.6-4,1.7c-1.1,1.1-1.7,2.5-1.7,4C0,24.4,2.5,27,5.7,27c2.3,0,4.3-1.4,5.2-3.3l-0.4,2.6l0,0
	c-0.9,5.1-2.4,10-4.4,14.7l0,0c-0.3,0.7-0.3,1.5,0,2.2s0.8,1.3,1.6,1.6C8,44.9,8.4,45,8.7,45c0.5,0.3,1.1,0.5,1.7,0.5
	c0.6,0,1.2-0.2,1.7-0.5l0,0c5.9-3.7,11-8.7,14.8-14.5c3.4,3.8,6.1,8.1,8,12.9l0,0l0,0l0,0l0,0c0.3,0.8,0.9,1.4,1.7,1.8
	c0.4,0.2,0.9,0.3,1.3,0.3s0.8-0.1,1.2-0.2c0.8-0.3,1.4-0.9,1.8-1.7C41.1,42.7,41.1,41.8,40.8,41z M5.6,25.1c-2.2,0-3.9-1.8-3.9-3.9
	c0-1,0.4-2,1.1-2.8c0.7-0.7,1.7-1.1,2.8-1.1c2.2,0,3.9,1.8,3.9,3.9S7.8,25.1,5.6,25.1z M39.1,42.7c-0.2,0.4-0.5,0.6-0.8,0.8
	c-0.4,0.1-0.8,0.1-1.1,0c-0.4-0.2-0.6-0.5-0.8-0.8l0,0l0,0c-2.1-5.3-5.2-10.2-9.1-14.3l0,0c0,0-0.1-0.1-0.2-0.1H27l0,0
	c-0.1,0-0.2-0.1-0.3-0.1l0,0c-0.1,0-0.2,0-0.3,0l0,0c-0.1,0-0.2,0.1-0.3,0.2l0,0l0,0c0,0-0.1,0.1-0.1,0.2c-3.7,5.9-8.7,11-14.6,14.7
	l0,0l0,0l0,0l0,0l0,0c0.7-1.6,1.4-3.3,1.9-5c2.9-2.3,5.6-5,7.9-8l0,0l0,0c0,0,0,0,0-0.1v-0.1V30v-0.1v-0.1v-0.1v-0.1v-0.1v-0.1v-0.1
	v-0.1v-0.1c0,0,0,0-0.1-0.1c0,0,0,0-0.1-0.1c0,0,0,0-0.1-0.1l0,0l0,0l0,0c-1.7-1.1-3.7-1.8-5.8-1.9l0,0H15c0,0,0,0-0.1,0h-0.1l0,0
	c-0.2,0.1-0.3,0.2-0.4,0.3l0,0l-0.1,0.1l0,0v0.1c0,0,0,0,0,0.1l0,0c-1,5-2.5,10-4.5,14.7l0,0l0,0c-0.1,0.3-0.3,0.5-0.6,0.6
	s-0.6,0.1-0.9,0s-0.5-0.3-0.6-0.6c-0.1-0.3-0.1-0.6,0-0.9l0,0c2.1-4.8,3.6-9.9,4.5-15.1l0,0l0,0l1.2-7.7l0,0l0,0l0,0l0,0
	c0.7-5.2,0.9-10.5,0.4-15.8c-0.1-0.6,0.4-1.2,1-1.2c0.6-0.1,1.2,0.4,1.2,1l0,0l0,0c0.5,5.2,0.4,10.5-0.3,15.7l0,0l0,0c0,0,0,0,0,0.1
	v0.1v0.1v0.1v0.1v0.1v0.1c0,0,0,0,0,0.1c0,0,0,0,0.1,0.1c0,0,0,0,0.1,0.1c0,0,0.1,0,0.1,0.1c0,0,0,0,0.1,0h0.1c0,0,0,0,0.1,0h0.1
	c0,0,0,0,0.1,0l0,0l0,0c4.1,0.4,8,2.2,11.1,5c5.1,4.8,9.1,10.7,11.6,17.2C39.3,42,39.3,42.4,39.1,42.7z M15.7,28.9
	c1.2,0.1,2.3,0.5,3.3,1c-1.5,1.8-3.1,3.5-4.8,5.1C14.8,33,15.3,31,15.7,28.9z"/>
</svg>
