<?xml version="1.0" encoding="utf-8"?>
<!-- Generator: Adobe Illustrator 21.1.0, SVG Export Plug-In . SVG Version: 6.00 Build 0)  -->
<svg version="1.1" id="Layer_1" xmlns="http://www.w3.org/2000/svg" xmlns:xlink="http://www.w3.org/1999/xlink" x="0px" y="0px"
	 viewBox="0 0 68.6 62.2" style="enable-background:new 0 0 68.6 62.2;" xml:space="preserve">
<style type="text/css">
	.st0{fill:#324A76;}
	.st1{fill:#FF6E35;}
</style>
<g>
	<g>
		<g>
			<path class="st0" d="M25.4,33.1c-1.7,0-3.5,0.5-4.8,2c-1.7,1.6-4.3,1.6-6.1,0c-2.6-2.5-6.7-2.5-9.3,0l-2.7,2.6
				C2,38.1,2,61.1,2.5,61.5c0.4,0.5,1.2,0.5,1.6,0l2.7-2.6c1.7-1.6,4.3-1.6,6.1,0c2.6,2.5,6.7,2.5,9.3,0c0.9-0.9,2.1-1.2,3.3-1.2
				c0.7,0,1-0.5,1.2-1.1C26.4,55.9,25.9,33.1,25.4,33.1z"/>
		</g>
	</g>
	<g>
		<g>
			<path class="st0" d="M68.4,35.1c-0.4-0.5-1-0.5-1.6,0c-1.7,1.6-4.3,1.6-6.1,0c-2.6-2.5-6.7-2.5-9.3,0c-0.7,0.7-1.7,1.2-2.7,1.2
				c-0.7,0-1,0.5-1,1.2l0,0c0,0.5,0.5,23.4,1.2,23.4c1.6-0.1,3-0.7,4.2-2c1.7-1.6,4.3-1.6,6.1,0c2.6,2.5,6.7,2.5,9.3,0
				C68.7,58.5,68.7,35.4,68.4,35.1z"/>
		</g>
	</g>
	<g>
		<g>
			<path class="st0" d="M68.4,57.6c-0.4-0.5-1-0.5-1.6,0c-1.7,1.6-4.3,1.6-6.1,0c-2.6-2.5-6.7-25-9.3-22.5c-1.7,1.6-4.3,1.6-6.1,0
				c-2.6-2.5-6.7-2.5-9.3,0c-1.7,1.6-4.3,1.6-6.1,0c-2.6-2.5-6.7-2.5-9.3,0c-1.7,1.6-4.3,24-6.1,22.5c-2.6-2.5-6.7-2.5-9.3,0
				l-2.7,2.6c-0.5,0.4-0.5,1,0,1.6l0,0c0.4,0.5,1,0.5,1.6,0l2.7-2.6c1.7-1.6,4.3-1.6,6.1,0c2.6,2.5,6.7,2.5,9.3,0
				c1.7-1.6,4.3-1.6,6.1,0c2.6,2.5,6.7,2.5,9.3,0c1.7-1.6,4.3-1.6,6.1,0c2.6,2.5,6.7,2.5,9.3,0c1.7-1.6,4.3-1.6,6.1,0
				c2.6,2.5,6.7,2.5,9.3,0C68.7,58.7,68.7,58.1,68.4,57.6z"/>
		</g>
	</g>
	<g>
		<g>
			<path class="st0" d="M67.6,17.7H62V4.8C62,2.7,60.3,1,58,1c-1.4,0-2.6,0.7-3.3,2l-7.2,11.9V5c0-2.1-1.7-3.8-4-3.8
				c-1.4,0-2.6,0.7-3.3,2L31.3,18H3c-0.7,0-1,0.5-1,1s0.5,1,1,1h26.9l-0.4,0.5c-0.7,1.2-1,2.5-1,3.8V41c0,0.7,0.5,1,1,1s1-0.5,1-1
				v-4.3h12.3V41c0,0.7,0.5,1,1,1s1-0.5,1-1V24.3c0-0.9,0.1-2,0.7-2.6l1-1.7h20.4c0.7,0,1-0.5,1-1S68.2,17.7,67.6,17.7z M43,34.3
				H30.7v-5.6H43V34.3z M44.1,20.3c-0.7,1.2-1,2.5-1,3.8v2.2H30.8v-2.2c0-0.9,0.1-2,0.7-2.6l1-1.7h11.8L44.1,20.3z M45.4,17.7H34
				l8.2-13.6c0.4-0.5,0.9-0.9,1.6-0.9c0.9,0,1.7,0.7,1.7,1.6L45.4,17.7L45.4,17.7z M59.9,17.7H48.5l8.2-13.6
				c0.4-0.5,0.9-0.9,1.6-0.9c0.9,0,1.7,0.7,1.7,1.6L59.9,17.7L59.9,17.7z"/>
		</g>
	</g>
</g>
<g>
	<g>
		<g>
			<path class="st1" d="M23.4,32.1c-1.7,0-3.5,0.5-4.8,2c-1.7,1.6-4.3,1.6-6.1,0c-2.6-2.5-6.7-2.5-9.3,0l-2.7,2.6
				c-0.5,0.4-0.5,1.2,0,1.6c0.4,0.5,1.2,0.5,1.6,0l2.7-2.6c1.7-1.6,4.3-1.6,6.1,0c2.6,2.5,6.7,2.5,9.3,0c0.9-0.9,2.1-1.2,3.3-1.2
				c0.7,0,1-0.5,1.2-1C24.4,32.7,23.9,32.1,23.4,32.1z"/>
		</g>
	</g>
	<g>
		<g>
			<path class="st1" d="M65.6,16.7H60V3.8C60,1.7,58.3,0,56,0c-1.4,0-2.6,0.7-3.3,2l-7.2,11.9V4c0-2.1-1.7-3.8-4-3.8
				c-1.4,0-2.6,0.7-3.3,2L29.3,17H1c-0.7,0-1,0.5-1,1s0.5,1,1,1h26.9l-0.4,0.5c-0.7,1.2-1,2.5-1,3.8V40c0,0.7,0.5,1,1,1s1-0.5,1-1
				v-4.3h12.3V40c0,0.7,0.5,1,1,1s1-0.5,1-1V23.3c0-0.9,0.1-2,0.7-2.6l1-1.7h20.4c0.7,0,1-0.5,1-1S66.2,16.7,65.6,16.7z M41,33.3
				H28.7v-5.6H41V33.3z M42.1,19.3c-0.7,1.2-1,2.5-1,3.8v2.2H28.8v-2.2c0-0.9,0.1-2,0.7-2.6l1-1.7h11.8L42.1,19.3z M43.4,16.7H32
				l8.2-13.6c0.4-0.5,0.9-0.9,1.6-0.9c0.9,0,1.7,0.7,1.7,1.6L43.4,16.7L43.4,16.7z M57.9,16.7H46.5l8.2-13.6
				c0.4-0.5,0.9-0.9,1.6-0.9c0.9,0,1.7,0.7,1.7,1.6L57.9,16.7L57.9,16.7z"/>
		</g>
	</g>
	<g>
		<g>
			<path class="st1" d="M66.4,44.7c-0.4-0.5-1-0.5-1.6,0c-1.7,1.6-4.3,1.6-6.1,0c-2.6-2.5-6.7-2.5-9.3,0c-1.7,1.6-4.3,1.6-6.1,0
				c-2.6-2.5-6.7-2.5-9.3,0c-1.7,1.6-4.3,1.6-6.1,0c-2.6-2.5-6.7-2.5-9.3,0c-1.7,1.6-4.3,1.6-6.1,0c-2.6-2.5-6.7-2.5-9.3,0l-2.7,2.6
				c-0.5,0.4-0.5,1,0,1.6c0.4,0.5,1,0.5,1.6,0l2.7-2.6c1.7-1.6,4.3-1.6,6.1,0c2.6,2.5,6.7,2.5,9.3,0c1.7-1.6,4.3-1.6,6.1,0
				c2.6,2.5,6.7,2.5,9.3,0c1.7-1.6,4.3-1.6,6.1,0c2.6,2.5,6.7,2.5,9.3,0c1.7-1.6,4.3-1.6,6.1,0c2.6,2.5,6.7,2.5,9.3,0
				C66.7,46,66.7,45.2,66.4,44.7z"/>
		</g>
	</g>
	<g>
		<g>
			<path class="st1" d="M66.4,34.1c-0.4-0.5-1-0.5-1.6,0c-1.7,1.6-4.3,1.6-6.1,0c-2.6-2.5-6.7-2.5-9.3,0c-0.7,0.7-1.7,1.2-2.7,1.2
				c-0.7,0-1,0.5-1,1.2l0,0c0,0.5,0.5,1,1.2,1c1.6-0.1,3-0.7,4.2-2c1.7-1.6,4.3-1.6,6.1,0c2.6,2.5,6.7,2.5,9.3,0
				C66.7,35.1,66.7,34.4,66.4,34.1z"/>
		</g>
	</g>
	<g>
		<g>
			<path class="st1" d="M66.4,56.6c-0.4-0.5-1-0.5-1.6,0c-1.7,1.6-4.3,1.6-6.1,0c-2.6-2.5-6.7-2.5-9.3,0c-1.7,1.6-4.3,1.6-6.1,0
				c-2.6-2.5-6.7-2.5-9.3,0c-1.7,1.6-4.3,1.6-6.1,0c-2.6-2.5-6.7-2.5-9.3,0c-1.7,1.6-4.3,1.6-6.1,0c-2.6-2.5-6.7-2.5-9.3,0l-2.7,2.6
				c-0.5,0.4-0.5,1,0,1.6l0,0c0.4,0.5,1,0.5,1.6,0l2.7-2.6c1.7-1.6,4.3-1.6,6.1,0c2.6,2.5,6.7,2.5,9.3,0c1.7-1.6,4.3-1.6,6.1,0
				c2.6,2.5,6.7,2.5,9.3,0c1.7-1.6,4.3-1.6,6.1,0c2.6,2.5,6.7,2.5,9.3,0c1.7-1.6,4.3-1.6,6.1,0c2.6,2.5,6.7,2.5,9.3,0
				C66.7,57.7,66.7,57.1,66.4,56.6z"/>
		</g>
	</g>
</g>
</svg>
